PathFileType	4	(X/Y/Z)	/Users/itak/Documents/Research/Walk-IL/dataset/trc/00055_00006.trc
DataRate	CameraRate	NumFrames	NumMarkers	Units	OrigDataRate	OrigDataStartFrame	OrigNumFrames
100.000000	100.000000	4	53	mm	100.000000	60	485
Frame#	Time	RPSI			LPSI			L3			STRN			T10			C7			CLAV			RBAK			LBAK			LSHO			LUPA			LAEL			LAOL			LWTS			LWPS			LFRA			LHPS			LHTS			RSHO			RUPA			RAEL			RAOL			RWTS			RWPS			RFRA			RIFD			RHTS			RHPS			RBHD			LFHD			RFHD			LBHD			LHIP			RHIP			RASI			LASI			LKNE			LTHI			LANK			LTIP			LTOE			LMT1			LMT5			LHEE			RKNE			RTHI			RANK			RTIP			RTOE			RMT1			RMT5			RHEE			LIFD			
		X1	Y1	Z1	X2	Y2	Z2	X3	Y3	Z3	X4	Y4	Z4	X5	Y5	Z5	X6	Y6	Z6	X7	Y7	Z7	X8	Y8	Z8	X9	Y9	Z9	X10	Y10	Z10	X11	Y11	Z11	X12	Y12	Z12	X13	Y13	Z13	X14	Y14	Z14	X15	Y15	Z15	X16	Y16	Z16	X17	Y17	Z17	X18	Y18	Z18	X19	Y19	Z19	X20	Y20	Z20	X21	Y21	Z21	X22	Y22	Z22	X23	Y23	Z23	X24	Y24	Z24	X25	Y25	Z25	X26	Y26	Z26	X27	Y27	Z27	X28	Y28	Z28	X29	Y29	Z29	X30	Y30	Z30	X31	Y31	Z31	X32	Y32	Z32	X33	Y33	Z33	X34	Y34	Z34	X35	Y35	Z35	X36	Y36	Z36	X37	Y37	Z37	X38	Y38	Z38	X39	Y39	Z39	X40	Y40	Z40	X41	Y41	Z41	X42	Y42	Z42	X43	Y43	Z43	X44	Y44	Z44	X45	Y45	Z45	X46	Y46	Z46	X47	Y47	Z47	X48	Y48	Z48	X49	Y49	Z49	X50	Y50	Z50	X51	Y51	Z51	X52	Y52	Z52	X53	Y53	Z53	

61	0.6	965.6439208984375	1027.671508789062	-197.7860260009766	951.885009765625	1022.784301757812	-373.9918823242188	962.966064453125	1071.31103515625	-294.3641052246094	1199.625610351562	1272.185302734375	-294.2165222167969	936.8526000976562	1204.7822265625	-301.1431579589844	986.8543090820312	1473.130737304688	-306.3874816894531	1167.689697265625	1386.36669921875	-299.0220031738281	925.65966796875	1334.00390625	-230.7645111083984	968.7346801757812	1433.600952148438	-408.0838623046875	1075.389892578125	1438.113037109375	-476.9435119628906	1066.974487304688	1307.731811523438	-551.07568359375	1100.263671875	1092.249145507812	-558.0108642578125	1033.36865234375	1077.93798828125	-476.4535217285156	1198.0986328125	859.9935302734375	-480.2084045410156	1144.63232421875	844.148681640625	-543.2675170898438	1126.134399414062	984.4876098632812	-559.69482421875	1181.2119140625	764.7970581054688	-533.1256713867188	1224.489868164062	779.1642456054688	-478.3530578613281	1047.14794921875	1438.077880859375	-128.0007476806641	1037.94921875	1367.884155273438	-64.38008117675781	1022.753601074219	1099.430419921875	-41.67149353027344	1043.063842773438	1080.088500976562	-136.8903503417969	1174.019287109375	853.9031372070312	-77.81343841552734	1104.216918945312	836.8230590820312	-28.08168601989746	1039.566284179688	1021.203918457031	-35.40530014038086	1184.945434570312	664.4523315429688	-94.36879730224609	1198.736938476562	750.8140869140625	-77.62794494628906	1142.35791015625	747.1112670898438	-25.98804092407227	1034.13720703125	1650.783081054688	-375.4809265136719	1188.861328125	1687.30126953125	-227.7921142578125	1207.616455078125	1688.818969726562	-352.018310546875	1022.915466308594	1642.385375976562	-238.8606414794922	1053.284423828125	951.9061279296875	-462.4518737792969	1031.140258789062	953.2819213867188	-122.2215118408203	1154.726196289062	964.7811279296875	-144.9524993896484	1166.845458984375	956.4417114257812	-413.4764099121094	1083.154296875	486.062255859375	-416.3263549804688	1065.490844726562	628.7526245117188	-454.5155029296875	978.6051025390625	38.46211624145508	-434.3775939941406	1021.2412109375	254.360107421875	-440.8458557128906	1184.003662109375	30.27948570251465	-428.8551330566406	1134.471923828125	31.16283416748047	-374.0180358886719	1080.431030273438	28.77735900878906	-473.4546813964844	926.2935791015625	35.78173828125	-358.701416015625	1070.447265625	505.9712829589844	-143.593017578125	1097.977172851562	776.0305786132812	-112.4124526977539	979.0029296875	34.72281646728516	-154.6436920166016	1042.450073242188	387.6492309570312	-139.6900787353516	1198.773193359375	27.72780990600586	-178.4412994384766	1139.359619140625	33.75572204589844	-221.3923797607422	1103.444580078125	35.80545425415039	-131.1475524902344	935.1089477539062	35.76528930664062	-213.8377685546875	1214.8173828125	676.0460205078125	-449.1232604980469	
62	0.61	966.129638671875	1027.531005859375	-197.6588745117188	951.8942260742188	1022.773193359375	-373.9876403808594	963.0029296875	1071.312377929688	-294.32763671875	1199.65673828125	1272.175415039062	-294.1427001953125	936.8627319335938	1204.814208984375	-301.144775390625	986.88134765625	1473.1279296875	-306.3428039550781	1167.734497070312	1386.361206054688	-298.9751892089844	925.6742553710938	1334.0107421875	-230.7536010742188	968.7595825195312	1433.611572265625	-408.0468444824219	1075.425170898438	1438.091918945312	-476.8929138183594	1066.817993164062	1307.77294921875	-551.1124877929688	1099.60205078125	1092.302612304688	-558.2815551757812	1032.763793945312	1077.987182617188	-476.5678100585938	1196.309814453125	859.0994873046875	-481.6819152832031	1142.65966796875	843.933837890625	-544.7611083984375	1124.975830078125	984.5027465820312	-560.46337890625	1178.699340820312	764.3221435546875	-535.1195678710938	1222.157470703125	778.0716552734375	-480.2602844238281	1047.156982421875	1438.078857421875	-127.9660797119141	1037.914306640625	1367.922973632812	-64.3179931640625	1021.973876953125	1099.598022460938	-41.62401580810547	1042.733032226562	1080.062133789062	-136.6707458496094	1172.617797851562	853.3621826171875	-76.74095916748047	1102.678588867188	836.802490234375	-27.1025390625	1038.845581054688	1021.410766601562	-35.04338836669922	1182.59912109375	663.8936767578125	-92.85167694091797	1196.814086914062	750.2260131835938	-76.33014678955078	1140.428100585938	746.9309692382812	-24.67447090148926	1034.15673828125	1650.7919921875	-375.4099731445312	1188.89208984375	1687.300170898438	-227.7340698242188	1207.631958007812	1688.81103515625	-351.9804382324219	1022.99365234375	1642.390258789062	-238.7826843261719	1053.58447265625	951.912841796875	-462.3857116699219	1031.171142578125	953.270263671875	-122.1753921508789	1154.743041992188	964.7700805664062	-144.8861999511719	1166.871948242188	956.4157104492188	-413.410400390625	1083.174682617188	486.0608215332031	-416.300537109375	1065.627197265625	628.7852172851562	-454.4861145019531	978.6061401367188	38.46280288696289	-434.3780822753906	1021.24658203125	254.3579406738281	-440.83154296875	1184.005615234375	30.28194999694824	-428.8526611328125	1134.471801757812	31.16716575622559	-374.0169067382812	1080.42333984375	28.78291130065918	-473.4530029296875	926.28369140625	35.76640319824219	-358.7178039550781	1070.47412109375	505.9466857910156	-143.5730438232422	1098.075805664062	776.0079956054688	-112.3703765869141	978.999755859375	34.72052001953125	-154.6443481445312	1042.48779296875	387.6546020507812	-139.6647491455078	1198.772583007812	27.72685050964355	-178.4412231445312	1139.35888671875	33.75724411010742	-221.3937072753906	1103.4443359375	35.8048210144043	-131.1462249755859	935.1079711914062	35.76536560058594	-213.8365631103516	1211.8095703125	674.717041015625	-451.4836120605469	
63	0.62	966.6613159179688	1027.390747070312	-197.5274505615234	951.8707885742188	1022.758605957031	-373.987548828125	963.0527954101562	1071.314086914062	-294.2845458984375	1199.680419921875	1272.169921875	-294.0718994140625	936.853515625	1204.860473632812	-301.1531066894531	986.907958984375	1473.127685546875	-306.2949523925781	1167.7705078125	1386.343383789062	-298.9103393554688	925.6912841796875	1334.016235351562	-230.7367858886719	968.7827758789062	1433.622192382812	-408.00244140625	1075.452880859375	1438.069213867188	-476.8388977050781	1066.64208984375	1307.820556640625	-551.1581420898438	1098.914672851562	1092.36181640625	-558.5823364257812	1032.23291015625	1078.0380859375	-476.7022705078125	1194.544677734375	858.259765625	-483.1954650878906	1140.710083007812	843.7543334960938	-546.2804565429688	1123.802124023438	984.5269775390625	-561.2577514648438	1176.203491210938	763.8790283203125	-537.136962890625	1219.857666015625	777.01513671875	-482.2056884765625	1047.1591796875	1438.082885742188	-127.9316329956055	1037.87255859375	1367.963623046875	-64.25196838378906	1021.174377441406	1099.775512695312	-41.574951171875	1042.415893554688	1080.024780273438	-136.4311218261719	1171.239624023438	852.849609375	-75.65167236328125	1101.177001953125	836.7971801757812	-26.11648941040039	1038.13134765625	1021.618530273438	-34.66383743286133	1180.32080078125	663.3657836914062	-91.33968353271484	1194.93505859375	749.66943359375	-75.02108764648438	1138.53125	746.7745361328125	-23.36731910705566	1034.18115234375	1650.803955078125	-375.3383483886719	1188.927368164062	1687.301513671875	-227.6783294677734	1207.647094726562	1688.8037109375	-351.9492492675781	1023.066467285156	1642.400512695312	-238.7074584960938	1053.995727539062	951.9114990234375	-462.2989807128906	1031.16748046875	953.2626342773438	-122.1305236816406	1154.755126953125	964.7594604492188	-144.8130187988281	1166.893798828125	956.3972778320312	-413.3453063964844	1083.193603515625	486.06689453125	-416.2769470214844	1065.746215820312	628.8429565429688	-454.4657897949219	978.607666015625	38.46401596069336	-434.3785705566406	1021.247924804688	254.35595703125	-440.8164367675781	1184.006958007812	30.28439521789551	-428.8508911132812	1134.470703125	31.17042350769043	-374.0156555175781	1080.412475585938	28.78949737548828	-473.4515380859375	926.27490234375	35.75536346435547	-358.7312622070312	1070.502807617188	505.920654296875	-143.5510559082031	1098.167114257812	775.98388671875	-112.3274002075195	978.9959716796875	34.71756744384766	-154.6437072753906	1042.533081054688	387.6651306152344	-139.63623046875	1198.7705078125	27.72683334350586	-178.4408416748047	1139.357666015625	33.76093673706055	-221.3945007324219	1103.443359375	35.80452728271484	-131.1437683105469	935.10400390625	35.76117706298828	-213.8338317871094	1208.831298828125	673.423583984375	-453.8836364746094	
64	0.63	967.180908203125	1027.263549804688	-197.4013824462891	951.8119506835938	1022.740356445312	-373.9930114746094	963.1022338867188	1071.315673828125	-294.2355346679688	1199.696899414062	1272.168334960938	-294.0045776367188	936.8302001953125	1204.916748046875	-301.1630859375	986.9342041015625	1473.130493164062	-306.2440490722656	1167.798828125	1386.31640625	-298.8302001953125	925.7091064453125	1334.020751953125	-230.714111328125	968.8038330078125	1433.633422851562	-407.9491271972656	1075.47314453125	1438.045166015625	-476.7816467285156	1066.449951171875	1307.872802734375	-551.2114868164062	1098.207153320312	1092.426391601562	-558.9139404296875	1031.759887695312	1078.09326171875	-476.8644104003906	1192.810424804688	857.4815673828125	-484.7433471679688	1138.79248046875	843.6185302734375	-547.8194580078125	1122.617309570312	984.5592651367188	-562.07421875	1173.743408203125	763.4713134765625	-539.1637573242188	1217.59912109375	776.0017700195312	-484.1788330078125	1047.1552734375	1438.089599609375	-127.8966445922852	1037.822387695312	1368.005737304688	-64.18344879150391	1020.379699707031	1099.957153320312	-41.51311111450195	1042.1025390625	1079.9794921875	-136.1720733642578	1169.889526367188	852.3729858398438	-74.55837249755859	1099.71240234375	836.8056640625	-25.12884521484375	1037.425170898438	1021.826538085938	-34.26916122436523	1178.123413085938	662.8677978515625	-89.82490539550781	1193.111206054688	749.1480712890625	-73.70296478271484	1136.664916992188	746.63818359375	-22.07854080200195	1034.21044921875	1650.817749023438	-375.2675170898438	1188.965942382812	1687.306640625	-227.6241912841797	1207.661987304688	1688.797119140625	-351.9232788085938	1023.129638671875	1642.414184570312	-238.6373748779297	1054.43310546875	951.9036865234375	-462.2053833007812	1031.143798828125	953.256591796875	-122.085578918457	1154.763305664062	964.7523193359375	-144.7349090576172	1166.910888671875	956.3865356445312	-413.2825622558594	1083.2119140625	486.0830993652344	-416.25732421875	1065.82958984375	628.9170532226562	-454.45556640625	978.6093139648438	38.46521759033203	-434.3784484863281	1021.245483398438	254.3539581298828	-440.8001708984375	1184.007690429688	30.28686141967773	-428.8500366210938	1134.46923828125	31.1718578338623	-374.0143737792969	1080.399047851562	28.79641342163086	-473.4507141113281	926.269287109375	35.74989318847656	-358.7376098632812	1070.533081054688	505.8948364257812	-143.52734375	1098.250366210938	775.9584350585938	-112.2844085693359	978.990966796875	34.71258163452148	-154.6416015625	1042.58447265625	387.679443359375	-139.6049346923828	1198.765991210938	27.72776794433594	-178.4400177001953	1139.355834960938	33.76647186279297	-221.3947906494141	1103.441528320312	35.80486297607422	-131.1401519775391	935.0975952148438	35.75308990478516	-213.8287811279297	1205.89111328125	672.17431640625	-456.3131103515625	
